<mxfile host="app.diagrams.net" modified="2023-04-16T20:18:58.652Z" agent="Mozilla/5.0 (Macintosh; Intel Mac OS X 10_15_7) AppleWebKit/537.36 (KHTML, like Gecko) Chrome/112.0.0.0 Safari/537.36" etag="haV_teKbK5uzop1bEmWT" version="21.1.8" type="device">
  <diagram name="Page-1" id="GPsY_Z-lqN_1dGaGNhLH">
    <mxGraphModel dx="989" dy="532" grid="1" gridSize="10" guides="1" tooltips="1" connect="1" arrows="1" fold="1" page="1" pageScale="1" pageWidth="850" pageHeight="1100" math="0" shadow="0">
      <root>
        <mxCell id="0" />
        <mxCell id="1" parent="0" />
        <mxCell id="tchHdSYBCSRbhbLZutpm-1" value="" style="rounded=0;whiteSpace=wrap;html=1;movable=1;resizable=1;rotatable=1;deletable=1;editable=1;locked=0;connectable=1;" vertex="1" parent="1">
          <mxGeometry x="120" y="350" width="360" height="320" as="geometry" />
        </mxCell>
        <mxCell id="tchHdSYBCSRbhbLZutpm-2" value="Header" style="rounded=0;whiteSpace=wrap;html=1;" vertex="1" parent="1">
          <mxGeometry x="120" y="260" width="360" height="60" as="geometry" />
        </mxCell>
        <mxCell id="tchHdSYBCSRbhbLZutpm-7" value="Ticket&lt;br&gt;Clicking on a ticket will show a ticket&#39;s ticket detail." style="rounded=0;whiteSpace=wrap;html=1;" vertex="1" parent="1">
          <mxGeometry x="130" y="430" width="340" height="60" as="geometry" />
        </mxCell>
        <mxCell id="tchHdSYBCSRbhbLZutpm-8" value="Ticket" style="rounded=0;whiteSpace=wrap;html=1;" vertex="1" parent="1">
          <mxGeometry x="130" y="510" width="340" height="60" as="geometry" />
        </mxCell>
        <mxCell id="tchHdSYBCSRbhbLZutpm-9" value="Ticket" style="rounded=0;whiteSpace=wrap;html=1;" vertex="1" parent="1">
          <mxGeometry x="130" y="590" width="340" height="60" as="geometry" />
        </mxCell>
        <mxCell id="tchHdSYBCSRbhbLZutpm-10" value="Add Ticket&lt;br&gt;Clicking on thies button will show a form for submitting a&amp;nbsp; ticket." style="rounded=0;whiteSpace=wrap;html=1;" vertex="1" parent="1">
          <mxGeometry x="120" y="690" width="360" height="60" as="geometry" />
        </mxCell>
        <mxCell id="tchHdSYBCSRbhbLZutpm-12" value="Ticket List" style="text;strokeColor=none;align=center;fillColor=none;html=1;verticalAlign=middle;whiteSpace=wrap;rounded=0;" vertex="1" parent="1">
          <mxGeometry x="210" y="380" width="180" height="30" as="geometry" />
        </mxCell>
      </root>
    </mxGraphModel>
  </diagram>
</mxfile>
